<svg xmlns="http://www.w3.org/2000/svg" data-id="lg_K1ls1zkNPvyLfHN3IF" data-version="1" viewBox="720.5 -0.5 559 206"> <g data-padding="20">     <g transform="translate(10 3.674)scale(.96416)">         <rect width="212.907" height="603.961" x="-105.826" y="527.801" fill="#fff" rx="104" ry="104" transform="matrix(0 -.9 .9 0 287.12 109.94)"></rect>         <rect width="212.907" height="603.961" x="-105.826" y="527.801" fill="#04d1cd" rx="104" ry="104" transform="matrix(0 -.9 .9 0 272.88 96.19)"></rect>         <rect width="250.52" height="149.16" x="621.543" y="-75.145" fill="none" rx="0" ry="0" transform="translate(274.51 95.59)"></rect>         <path fill="#fff" d="m930.433 123.025-3.05 13.12h-27.97l21.47-82.83h40.96l21.47 82.83h-27.97l-3.05-13.12Zm11.66-44.26h-1.46l-5.43 23.19h12.19Zm114.38 36.18v21.2h-71.43v-16.57l33.93-44.26-.4-.8h-27.83l-2.39-21.2h67.59v16.57l-33.53 44.26.4.8Zm7.95-61.62h26.5v62.16h9.41q5.04 0 6.89-1.26 1.86-1.26 1.86-5.77v-55.13h26.5v46.52q0 11.26-1.45 18.15-1.46 6.9-5.44 11.67-3.97 4.77-10.86 6.62-6.9 1.86-17.9 1.86t-17.82-1.86q-6.83-1.85-10.8-6.62-3.98-4.77-5.44-11.67-1.45-6.89-1.45-18.15Z"></path>     </g>     <path fill="transparent" stroke="transparent" d="M721 0h558v205H721z"></path> </g> </svg>