<svg xmlns="http://www.w3.org/2000/svg" xml:space="preserve" width="2000" height="1500" data-id="lg_fIrh7dbsLxBirJPhAj" data-version="1" viewBox="0 0 2000 1500"><path fill="#39cccc" stroke="transparent" d="M0 0h2000v1500H0z"/><g data-padding="20"><g transform="translate(-1626.769 -1219.815)scale(2.5582)"><rect width="586.953" height="446.412" x="492.632" y="363.036" fill="none" rx="0" ry="0" transform="matrix(.95 0 0 .95 280 213.07)"/><path fill="#fff" d="M937.752 898.76q-15.05 2.64-24.08 2.64-17.31 0-33.87-3.77-1.5-4.51-2.63-5.64t-2.64-1.32q-1.5-.19-2.25-.56-3.01-9.41-8.28-30.48-3.01-12.42-5.08-18.06-2.07-5.65-4.33-5.65-3.01 0-5.08.19t-5.45.19q-2.64 7.15-5.27 22.95-3.01 14.68-5.27 23.33-2.26 8.66-6.4 16.56-1.13 0-3.2.37-2.06.38-5.08.38-4.13-.38-17.3-.38l-16.18-.37-19.95-.38 1.13-7.52h-8.65l5.27-27.85q10.53-60.95 22.95-120.22 12.42-59.26 31.23-121.72 6.77-.75 7.9-.75 1.51 0 9.78.37 8.28.38 34.62-2.25 1.51 6.39 1.88 8.27l5.65-.75q3.38 19.19 23.7 103.85 7.53 30.86 7.9 32.74Zm-40.26-142.61-30.86-133.2q-16.55 1.51-32.73 1.51h-7.91q-4.51 0-5.64.38-18.06 60.58-29.91 117.77-11.86 57.19-23.52 121.91-1.13 7.15-2.26 13.36t-1.88 9.59l.75.38h9.03l29.73.38q3.76.37 9.03.37 4.14 0 4.89-.37l1.13-.38q3.39-5.64 5.27-13.55 1.88-7.9 4.14-21.07 3.76-21.07 7.15-28.22 4.13 0 6.77-.19 2.63-.18 4.14-.18h4.89l7.52.75q3.01 6.77 6.21 18.81t3.95 15.05q3.77 17.69 7.53 27.47h.38q14.67 3.39 30.85 3.39 9.41 0 19.57-1.88v-.38Zm-57.2 24.84-9.03-.38q4.52-33.49 4.14-30.48 3.01-25.21 5.08-36.68 2.07-11.48 4.33-11.48 2.63 0 5.83 17.69 3.2 17.68 8.47 60.95Zm14.3-4.14-4.89-42.9-6.02 42.9Z"/><path fill="#fff" d="M1105.192 696.7q-12.04 20.7-25.96 41.02-13.93 20.32-38.01 54.56l-23.7 33.49q16.55-1.51 43.27-1.51h20.32l7.9-.38q3.01 0 4.89 1.51 1.88 1.5 2.63 6.4h6.4q1.88 11.28 1.88 25.58 0 7.53-.75 18.63t-1.13 15.99l-.75 8.65q-46.66-2.63-85.79-2.63-43.65 0-73.75 1.88-1.51-3.76-2.26-7.9-4.14 0-5.27.38-4.89-12.42-4.89-28.6l.38-10.91q.37-3.77.37-10.91 0-4.9-.75-13.93 12.04-27.46 29.73-54.18 17.68-26.72 46.66-66.6l8.27-10.91q-17.68-1.51-38.75-2.26t-35.37-.75q-.76-1.51-1.51-3.77-.75-2.25-1.5-3.76h-4.52q-3.76-6.39-3.76-21.82 0-16.18-1.13-24.27t-7.15-14.11q41.01-3.76 78.64-3.76 15.05 0 46.66.75 33.11.75 51.17.75l.76 7.53h6.77q1.13 8.65 1.13 20.69 0 13.92-.38 21.07v-.37q-.38 7.52-.38 22.2Zm-10.91-9.78.37-19.94q.76-14.3.76-21.45 0-9.41-1.13-18.44-16.94 0-48.54-.75l-46.66-.38q-17.69 0-36.12.38-18.44.38-33.49 2.26l.75 1.5v.38q2.26 7.53 2.26 22.2v8.28q0 15.8 3.01 21.07 16.18 0 45.53 1.5 29.35 1.51 45.15 3.39l-18.06 25.21q-26.72 36.88-44.4 63.59-17.68 26.72-29.73 52.68.38 4.14.38 12.42l-.38 22.2q0 15.42 3.39 25.58 40.26-1.88 71.49-1.88 42.9 0 82.41 2.26v-.75q1.88-19.57 1.88-38.01 0-11.66-1.13-22.2v-1.13q-12.42.76-20.88.76-8.47 0-14.11.37-13.55 0-27.85.76-14.3.75-31.98 3.01l.37-.38q15.06-23.33 38.76-56.44 39.51-56.44 57.95-87.67Zm196.41-42.89q1.88 40.26 1.88 72.62 0 65.09-6.39 122.66-3.77 29.35-24.84 47.79t-52.3 18.44q-23.71 0-45.53-8.85-21.82-8.84-35.75-25.4-13.92-16.55-14.67-38.38 0-27.09.75-81.27 1.13-41.77 1.13-84.66 0-26.72-.37-38.38 9.4 0 14.29-.38l15.81-.37q17.68 0 30.48 3.76l-.38 5.64q1.13.38 3.76.76 2.64.37 4.14 1.12-1.5 28.22-1.5 66.98 0 54.18 4.89 120.41v-.75q.75 4.13 3.57 5.45t7.34 1.32q7.15 0 12.79-4.14 5.65-4.14 7.53-11.67v.76q1.88-42.9 1.88-103.48.75-54.93 1.5-82.03 20.32-3.01 38.76-3.01 7.9 0 13.17.95 5.27.94 9.03 3.57l1.51 3.01v1.88q4.13 1.13 6.02 2.64Zm-31.98-11.29q-13.92 0-34.24 2.63-.38 15.8-.76 38.19-.37 22.39-.37 34.43-.75 73.38-2.26 109.5-1.88 8.65-8.84 13.73t-15.24 5.08q-7.53 0-13.73-4.33-6.21-4.32-8.47-12.6-4.89-58.7-4.89-120.78 0-35.75 1.5-63.97v-.38q-10.16-2.63-25.21-2.63l-15.8.37q-4.14.38-12.04.38h-.38l.38.38.37 35.37q0 41.39-1.12 83.15-.76 54.19-.76 81.65.38 19.95 12.8 33.87 12.41 13.92 31.6 20.69 19.19 6.78 40.26 6.78 31.61 0 50.8-16.94 19.19-16.93 22.58-45.9 6.39-53.06 6.39-122.29 0-32.36-1.88-72.62-6.02-3.76-20.69-3.76"/></g><path fill="transparent" stroke="transparent" stroke-width="2.653" d="M259.729 187.5H1740.27v1125H259.73z"/></g></svg>